<?xml version="1.0" encoding="UTF-8"?>
<svg id="Layer_2" data-name="Layer 2" xmlns="http://www.w3.org/2000/svg" viewBox="0 0 46.66 46.66">
  <defs>
    <style>
      .cls-1 {
        fill: #fff;
      }
    </style>
  </defs>
  <g id="Home_Page" data-name="Home Page">
    <g id="UI_Components" data-name="UI Components">
      <g>
        <path class="cls-1" d="M35.15,8.29c-.18-.08-.39-.07-.56.03-.26.14-6.48,3.53-8.31,7.81-.8,1.86-.74,3.86.17,5.79.46.97,1.02,1.7,1.35,2.07l-5.26,12.17L12.64,13.25c-.14-.33-.52-.48-.85-.34-.33.14-.48.52-.34.85l10.49,24.27c.1.24.34.39.59.39s.49-.15.59-.39l5.87-13.6c.52-.03,1.36-.13,2.3-.45,2.02-.67,3.51-2.01,4.3-3.87,1.83-4.28,0-11.12-.08-11.41-.05-.19-.19-.35-.37-.42ZM34.41,19.61c-.65,1.52-1.82,2.58-3.48,3.14-.49.17-.95.26-1.34.32l1.42-3.29,2.65-.94c.34-.12.51-.49.39-.82-.12-.34-.49-.51-.82-.39l-1.52.54,1.9-4.4c.14-.33,0-.71-.34-.85-.33-.14-.71,0-.85.34l-1.92,4.44-.58-1.64c-.12-.34-.49-.51-.82-.39-.34.12-.51.49-.39.82l1.04,2.96-1.38,3.2c-.25-.34-.53-.78-.78-1.31-.74-1.59-.78-3.17-.13-4.69,1.31-3.05,5.34-5.74,7.01-6.76.42,1.91,1.25,6.68-.05,9.73Z"/>
        <path class="cls-1" d="M44.83,14.25c-1.18-2.78-2.86-5.27-5-7.42-2.14-2.14-4.64-3.82-7.42-5C29.53.62,26.48,0,23.33,0h0c-3.15,0-6.2.62-9.08,1.83-2.78,1.18-5.27,2.86-7.42,5-2.14,2.14-3.82,4.64-5,7.42C.62,17.13,0,20.18,0,23.33c0,3.15.62,6.2,1.83,9.08,1.18,2.78,2.86,5.27,5,7.42,2.14,2.14,4.64,3.82,7.42,5,2.88,1.22,5.93,1.83,9.08,1.83,3.15,0,6.2-.62,9.08-1.83,2.78-1.18,5.27-2.86,7.42-5,2.14-2.14,3.82-4.64,5-7.42,1.22-2.88,1.83-5.93,1.83-9.08,0-3.15-.62-6.2-1.83-9.08ZM38.91,38.91c-4.16,4.16-9.7,6.45-15.58,6.45-5.89,0-11.42-2.29-15.58-6.45-4.16-4.16-6.45-9.7-6.45-15.58,0-5.89,2.29-11.42,6.45-15.58C11.91,3.58,17.44,1.29,23.33,1.29c5.89,0,11.42,2.29,15.58,6.45,4.16,4.16,6.45,9.7,6.45,15.58s-2.29,11.42-6.45,15.58Z"/>
      </g>
    </g>
  </g>
</svg>