<?xml version="1.0" encoding="UTF-8"?>
<svg id="Layer_2" data-name="Layer 2" xmlns="http://www.w3.org/2000/svg" viewBox="0 0 46.65 46.65">
  <defs>
    <style>
      .cls-1 {
        fill: #fff;
      }
    </style>
  </defs>
  <g id="Home_Page" data-name="Home Page">
    <g id="UI_Components" data-name="UI Components">
      <g>
        <path class="cls-1" d="M44.82,14.25c-1.17-2.78-2.86-5.27-5-7.41-2.14-2.14-4.64-3.82-7.41-5C29.53.62,26.47,0,23.32,0h0c-3.15,0-6.2.62-9.08,1.83-2.78,1.17-5.27,2.86-7.41,5-2.14,2.14-3.82,4.64-5,7.41C.62,17.12,0,20.18,0,23.32c0,3.15.62,6.2,1.83,9.08,1.17,2.78,2.86,5.27,5,7.41,2.14,2.14,4.64,3.82,7.41,5,2.88,1.22,5.93,1.83,9.08,1.83,3.15,0,6.2-.62,9.08-1.83,2.78-1.17,5.27-2.86,7.41-5,2.14-2.14,3.82-4.64,5-7.41,1.22-2.88,1.83-5.93,1.83-9.08,0-3.15-.62-6.2-1.83-9.08ZM43.59,31.89c-1.11,2.62-2.69,4.97-4.71,6.99-2.02,2.02-4.37,3.61-6.99,4.71-2.71,1.15-5.59,1.73-8.56,1.73s-5.85-.58-8.56-1.73c-2.62-1.11-4.97-2.69-6.99-4.71-2.02-2.02-3.61-4.37-4.71-6.99-1.15-2.71-1.73-5.59-1.73-8.56,0-2.97.58-5.85,1.73-8.56,1.11-2.62,2.69-4.97,4.71-6.99,2.02-2.02,4.37-3.61,6.99-4.71,2.71-1.15,5.59-1.73,8.56-1.73s5.85.58,8.56,1.73c2.62,1.11,4.97,2.69,6.99,4.71,2.02,2.02,3.61,4.37,4.71,6.99,1.15,2.71,1.73,5.59,1.73,8.56s-.58,5.85-1.73,8.56Z"/>
        <path class="cls-1" d="M33.41,14.35c-.33-.15-.72,0-.87.34-.15.33,0,.72.33.87.02.01,2.45,1.13,3.07,3.8.25,1.08.47,2.78.05,4.7-.4,1.86-1.3,3.49-2.66,4.86-.37.37-.86.75-1.34,1.11-.3.23-.6.46-.88.69.04-.1.05-.22.04-.33-.04-.28-.26-.5-.54-.55-.94-.17-3.62-.8-4.73-1.64-.96-.73-1.34-2.18-1.46-2.79.18-.18.35-.39.51-.62.55-.8.87-1.76.87-2.57,0-1.35-.54-2.01-1-2.33-.57-.4-1.32-.48-2.06-.24-.18.02-.82.05-1.66-.17-1.33-.34-2.51-1.09-3.52-2.24-1.44-1.64-1.35-4.6-1.28-5.59.13-.07.22-.11.22-.11.34-.14.49-.53.35-.87-.09-.21-.28-.35-.48-.39.43-.39,1.04-.8,1.91-1.17,1.38-.58,3.56-1.3,6.45-.84,1.14.18,3.5.56,5.02,3.16,1.18,2.02.35,3.56.32,3.62l1.15.66c.05-.09,1.25-2.25-.32-4.95-.6-1.03-1.32-1.77-2.05-2.31.53-.49,1.69-1.2,3.56-.56,1.99.68,3.16,1.91,3.39,3.55.13.89.02,1.57-.31,1.97-.33.41-.8.44-.82.44h0s.05,1.32.05,1.32c.11,0,1.06-.06,1.77-.9.59-.71.8-1.73.62-3.02-.31-2.14-1.82-3.78-4.28-4.62-1.87-.64-3.24-.22-4.06.24-.51.29-.87.63-1.1.87-1.1-.53-2.13-.69-2.74-.79-2.42-.39-4.77-.08-7.17.92-3.08,1.29-3.62,3.23-3.71,3.82-.05.06-.1.11-.14.17-1,1.25-1.37,3.37-1.46,3.99-.2,1.34-.72,3.69-1.09,4.35-.21.37-.78,1.12-1.24,1.73-.86,1.14-1,1.34-1.04,1.59-.08.47.1,1.08.82,1.37.09.04.19.07.31.11.18.06.69.23.86.37,0,.06-.02.15-.03.24-.03.21-.07.5-.05.86.03.41.2.76.38,1.01-.09.19-.16.41-.16.68,0,.46.26.79.47,1.06.12.16.24.31.27.43.03.13.04.39.05.65.04.82.09,1.76.53,2.32.63.79,1.89,1.17,2.98.91.56-.14,1.62-.58,2.65-1.02.64-.27,1.52-.64,1.71-.68.05,0,.1,0,.16.05.1.07.2.23.22.45.31,3.65-2.24,6.86-2.27,6.89-.23.28-.19.7.1.93.12.1.27.15.42.15.19,0,.38-.08.51-.25.12-.15,2.92-3.65,2.56-7.84-.05-.57-.32-1.08-.75-1.4-.36-.27-.79-.37-1.21-.29-.31.06-.92.32-1.97.76-.89.37-1.99.84-2.44.95-.66.16-1.36-.11-1.64-.45-.18-.22-.22-1.12-.25-1.56-.02-.33-.03-.62-.08-.85-.09-.43-.33-.74-.52-.99-.06-.08-.16-.21-.19-.26,0-.09.07-.16.09-.18.17-.12.25-.29.27-.49.01-.21-.09-.39-.25-.53-.11-.09-.33-.35-.34-.57-.01-.22.01-.4.04-.59.03-.22.07-.45.02-.72-.14-.8-1.1-1.12-1.75-1.34-.06-.02-.12-.04-.17-.06.17-.24.47-.64.71-.96.53-.7,1.07-1.43,1.33-1.87.55-.96,1.09-3.71,1.25-4.81.2-1.38.65-2.65,1.16-3.32.02,1.53.29,3.83,1.64,5.37,2.25,2.57,4.79,2.87,5.87,2.87.31,0,.5-.03.54-.03.02,0,.04,0,.05-.01,0,0,0,0,.01,0,0,0,0,0,.01,0,.02,0,.04,0,.05-.02.35-.13.7-.11.93.05.36.25.43.82.43,1.25,0,1.23-1.13,2.64-1.59,2.64-.37,0-.66.3-.66.66s.3.66.66.66c.11,0,.23-.02.34-.04.23.9.75,2.28,1.85,3.11.98.74,2.7,1.27,3.91,1.58-.48.51-.93,1.23-1.01,2.16-.29,3.67,2.49,6.32,2.6,6.43.13.12.29.18.45.18.18,0,.35-.07.48-.21.25-.27.24-.68-.03-.94-.02-.02-2.43-2.34-2.19-5.36.08-.95.85-1.61,1.25-1.88-.06.06-.12.13-.18.19-.58.66-.78,1.33-.59,1.98.08.29.35.48.64.48.06,0,.12,0,.18-.03.35-.1.56-.47.45-.82-.15-.51.85-1.28,1.73-1.95.51-.39,1.04-.79,1.47-1.23,1.55-1.55,2.56-3.4,3.02-5.51.47-2.17.23-4.07-.06-5.29-.78-3.33-3.7-4.66-3.83-4.71Z"/>
      </g>
    </g>
  </g>
</svg>