<?xml version="1.0" encoding="UTF-8"?>
<svg id="Layer_2" data-name="Layer 2" xmlns="http://www.w3.org/2000/svg" viewBox="0 0 46.66 46.66">
  <defs>
    <style>
      .cls-1 {
        fill: #fff;
      }
    </style>
  </defs>
  <g id="Home_Page" data-name="Home Page">
    <g id="UI_Components" data-name="UI Components">
      <g>
        <path class="cls-1" d="M39.83,39.83c4.41-4.41,6.83-10.26,6.83-16.5,0-6.23-2.43-12.09-6.83-16.5C35.42,2.43,29.56,0,23.33,0c-6.23,0-12.09,2.43-16.5,6.83C2.43,11.24,0,17.1,0,23.33c0,6.23,2.43,12.09,6.83,16.5,4.41,4.41,10.26,6.83,16.5,6.83,6.23,0,12.09-2.43,16.5-6.83ZM7.89,38.77c-4.13-4.13-6.4-9.61-6.4-15.44,0-5.83,2.27-11.32,6.4-15.44C12.01,3.76,17.5,1.49,23.33,1.49c5.83,0,11.32,2.27,15.44,6.4,4.13,4.13,6.4,9.61,6.4,15.44,0,5.83-2.27,11.32-6.4,15.44-4.13,4.13-9.61,6.4-15.44,6.4-5.83,0-11.32-2.27-15.44-6.4Z"/>
        <path class="cls-1" d="M31.88,33.95c1.66-1.87,2.42-4.18,2.25-6.85-.03-.41-.38-.72-.79-.7-.41.03-.72.38-.7.79.14,2.26-.49,4.2-1.88,5.77-1.09,1.23-2.64,2.23-4.6,2.99-3.62,1.39-7.7.38-10.16-2.53-1.62-1.91-2.27-4.32-1.93-7.18.28-2.36,1.21-5.04,2.78-7.94,2.1-3.87,4.79-7.13,5.92-8.43,2.75,3.05,4.95,5.91,6.55,8.52.22.35.67.46,1.02.24.35-.22.46-.67.24-1.02-1.76-2.86-4.21-6-7.28-9.35l-.54-.59-.55.59c-.16.17-3.85,4.14-6.66,9.32-1.67,3.07-2.67,5.93-2.97,8.49-.39,3.29.38,6.09,2.27,8.33,2.01,2.38,4.96,3.67,7.99,3.67,1.29,0,2.59-.23,3.85-.72,2.18-.84,3.92-1.98,5.17-3.39Z"/>
        <path class="cls-1" d="M17.67,26.81c-.4-.08-.8.17-.88.58-.02.12-.58,2.85.74,4.66.63.86,1.55,1.36,2.74,1.48.03,0,.05,0,.08,0,.38,0,.7-.28.74-.67.04-.41-.25-.78-.66-.82-.76-.08-1.31-.37-1.69-.88-.93-1.27-.49-3.46-.49-3.48.08-.4-.18-.8-.58-.88Z"/>
        <path class="cls-1" d="M28,25.64c-.21.22-.5.34-.8.33-.31,0-.59-.13-.79-.36l-2.52-2.79c-.28-.3-.75-.33-1.05-.05-.3.28-.33.75-.05,1.05l2.52,2.79c.48.53,1.16.84,1.87.85.01,0,.03,0,.04,0,.7,0,1.37-.28,1.86-.79l7.32-7.55c.29-.3.28-.77-.02-1.05-.3-.29-.77-.28-1.05.02l-7.32,7.55Z"/>
      </g>
    </g>
  </g>
</svg>