<?xml version="1.0" encoding="UTF-8"?>
<svg id="Layer_2" data-name="Layer 2" xmlns="http://www.w3.org/2000/svg" viewBox="0 0 46.66 46.66">
  <defs>
    <style>
      .cls-1 {
        fill: #fff;
      }
    </style>
  </defs>
  <g id="Home_Page" data-name="Home Page">
    <g id="UI_Components" data-name="UI Components">
      <g>
        <path class="cls-1" d="M36.27,21.93c0-.92-.05-2.75-.31-4.71-.52-3.83-1.61-6.13-3.24-6.86-.75-.33-1.35-.31-1.79.06-.72.61-.68,1.88-.22,4.04-1.16-1.83-2.38-2.81-3.65-2.92-.8-.07-1.37.14-1.67.63-.72,1.14.4,3.14,2.44,6.58,0,0,.01.02.01.03-.04-.03-.08-.05-.12-.08-2.24-1.47-4.84-2.22-7.73-2.22-3.86,0-7.37,1.32-9.61,3.63-1.69,1.74-2.55,3.91-2.49,6.28,0,0,0,0,0,0,0,0,0,0,0,0,0,.25.01.5.03.75-.93.44-1.54,1.42-1.54,2.54,0,1.53,1.16,2.78,2.58,2.78.37,0,.74-.09,1.08-.26,1.44,1.63,3.47,2.66,5.73,2.66h8.7c.69,0,1.26-.59,1.26-1.32,0-1.67-1.26-3.02-2.8-3.02h-.28c.66-1.26,1-2.66,1-4.13,0-1.24-.24-2.43-.72-3.55-.14-.33-.52-.48-.85-.34-.33.14-.48.52-.34.85.41.95.62,1.98.62,3.04,0,1.61-.48,3.13-1.38,4.4-.14.2-.16.46-.05.67.11.22.33.35.57.35h1.43c.83,0,1.51.78,1.51,1.73,0,.01,0,.02,0,.03h-8.66c-3.63,0-6.59-3.22-6.59-7.18,0,0,0-.01,0-.02,0,0,0-.02,0-.03-.05-2.02.68-3.87,2.13-5.35,2.01-2.06,5.17-3.24,8.69-3.24,2.63,0,4.99.68,7.02,2.01,1.98,1.31,2.93,2.78,3.17,3.2,0,0,.01.02.02.03,0,0,0,.01.01.02.02.02.03.04.05.06,0,0,0,0,.01.01.02.02.03.03.05.05,0,0,.01,0,.02.01.04.03.09.06.14.08,0,0,.01,0,.02,0,.02,0,.04.02.06.02,0,0,0,0,.02,0,.02,0,.05.01.08.02,0,0,.01,0,.02,0,.02,0,.04,0,.06,0,0,0,0,0,.01,0,0,0,0,0,0,0,.01,0,.03,0,.04,0,0,0,.02,0,.03,0,.02,0,.04,0,.07-.01,0,0,0,0,0,0,.02,0,.04-.01.06-.02,0,0,.01,0,.02,0,.02,0,.03-.01.04-.02,0,0,0,0,0,0,0,0,.01,0,.02-.01,0,0,.01,0,.02-.01,0,0,0,0,0,0,.01,0,.02-.01.03-.02,0,0,.02-.01.02-.02,0,0,.02-.01.03-.02,0,0,.02-.01.02-.02,0,0,.02-.02.02-.02,0,0,.01-.01.02-.02,0,0,.01-.02.02-.02,0,0,.01-.02.02-.03,0,0,.01-.02.02-.02,0,0,.01-.02.02-.03,0,0,0-.02.01-.03,0,0,.01-.02.02-.03,0,0,0-.02.01-.03,0-.01,0-.02.01-.03,0,0,0-.02,0-.03,0-.01,0-.02,0-.03,0-.01,0-.02,0-.03,0,0,0-.02,0-.03,0-.01,0-.02,0-.03,0-.01,0-.02,0-.03,0-.01,0-.02,0-.03,0-.01,0-.02,0-.03,0-.01,0-.02,0-.03,0-.01,0-.02,0-.03,0,0,0-.02,0-.03,0-.01,0-.02,0-.03,0,0,0-.02,0-.03,0-.01,0-.02-.01-.04,0,0,0-.02-.01-.03,0-.01,0-.02-.01-.03,0,0,0,0,0,0-.68-1.4-1.55-2.87-2.38-4.28-.78-1.31-1.51-2.55-1.98-3.55-.6-1.29-.5-1.63-.48-1.68.02-.01.14-.07.47-.04,1.23.11,2.63,1.79,3.92,4.72,1.05,2.38,1.67,4.77,1.68,4.79,0,0,0,0,0,0,0,.01,0,.02.01.04,0,0,0,.02,0,.03,0,.01,0,.02.01.03,0,0,0,.02.01.03,0,.01.01.02.02.03,0,0,0,.02.02.03,0,0,.01.02.02.03,0,0,.01.02.02.03,0,0,.01.01.02.02,0,0,.01.02.02.03,0,0,.01.01.02.02,0,0,.02.02.02.02,0,0,.02.01.02.02,0,0,.02.01.02.02,0,0,.02.01.03.02,0,0,.01,0,.02.01.01,0,.02.01.03.02,0,0,.01,0,.02.01.01,0,.03.01.04.02,0,0,.01,0,.02,0,.01,0,.03,0,.04.01,0,0,.01,0,.02,0,.01,0,.03,0,.04,0,0,0,.02,0,.02,0,.01,0,.02,0,.04,0,0,0,.02,0,.03,0,.01,0,.02,0,.03,0,.01,0,.02,0,.03,0,.01,0,.02,0,.03,0,.01,0,.02,0,.03,0,0,0,0,0,0,0,0,0,.02,0,.03,0,0,0,.02,0,.02,0,0,0,0,0,0,0,.01,0,.03,0,.04-.01,0,0,.02,0,.02,0,.01,0,.02-.01.04-.02,0,0,.01,0,.02,0,.01,0,.02-.01.03-.02,0,0,.02,0,.02-.01,0,0,.02-.01.03-.02,0,0,.02-.01.02-.02,0,0,.02-.01.02-.02,0,0,.02-.01.02-.02,0,0,.01-.01.02-.02,0,0,.01-.02.02-.02,0,0,.01-.02.02-.02,0,0,.01-.02.02-.02,0,0,.01-.02.02-.03,0,0,.01-.02.02-.02,0,0,.01-.02.02-.03,0,0,0-.02.01-.02,0-.01,0-.02.01-.03,0,0,0-.02,0-.02,0-.01,0-.02.01-.03,0,0,0-.02,0-.03,0-.01,0-.02,0-.03,0-.01,0-.02,0-.03,0,0,0-.02,0-.03,0-.01,0-.02,0-.03,0,0,0-.02,0-.03,0-.01,0-.02,0-.04,0,0,0-.02,0-.03,0-.01,0-.02,0-.04,0,0,0,0,0,0-.27-1.56-.7-3.24-1.11-4.87-.38-1.48-.73-2.87-.91-3.97-.22-1.35-.08-1.73-.03-1.81.05,0,.18,0,.44.12,1.16.52,2.05,2.59,2.49,5.84.36,2.62.3,5.1.3,5.13,0,0,0,0,0,0,0,0,0,0,0,0,0,0,0,.02,0,.02,0,.01,0,.02,0,.03,0,.01,0,.02,0,.03,0,.01,0,.02,0,.03,0,.01,0,.02,0,.03,0,.01,0,.02,0,.03,0,.01,0,.02.01.03,0,0,0,.02.01.03,0,.01,0,.02.01.03,0,0,0,.02.01.03,0,.01.01.02.02.03,0,0,0,.02.01.02,0,0,.01.02.02.03,0,0,.01.01.02.02,0,0,.02.02.02.03,0,0,.01.01.02.02,0,0,.02.02.02.02,0,0,.01.01.02.02,0,0,.02.01.03.02,0,0,.01.01.02.02,0,0,.02.01.03.02,0,0,.02,0,.02.01.01,0,.02.01.03.02,0,0,.02,0,.02.01.01,0,.02,0,.03.01,0,0,.02,0,.03,0,.01,0,.02,0,.04,0,0,0,.02,0,.03,0,.01,0,.02,0,.04,0,0,0,.02,0,.03,0,.01,0,.02,0,.04,0,0,0,.01,0,.02,0,0,0,0,0,.01,0,0,0,0,0,0,0,1.86,0,3.37,1.59,3.37,3.54,0,1.95-1.51,3.54-3.37,3.54-1.23,0-2.23,1.03-2.23,2.3,0,.36.08.7.23,1.01h-6.34c-.36,0-.65.29-.65.65,0,.36.29.65.65.65h8.35c.36,0,.65-.29.65-.65s-.29-.65-.65-.65c-.52,0-.94-.45-.94-1.01,0-.56.42-1.01.94-1.01,2.57,0,4.66-2.17,4.66-4.84,0-2.44-1.75-4.46-4.01-4.79ZM9.24,31.14c-.09.02-.18.04-.28.04-.71,0-1.29-.67-1.29-1.49,0-.45.18-.87.47-1.15.23.94.6,1.82,1.1,2.6Z"/>
        <path class="cls-1" d="M37.16,26.64c0-.41-.33-.74-.73-.74s-.73.33-.73.74.33.74.73.74.73-.33.73-.74ZM35.86,26.64c0-.31.25-.56.56-.56s.56.25.56.56-.25.56-.56.56-.56-.25-.56-.56Z"/>
        <path class="cls-1" d="M44.83,14.25c-1.18-2.78-2.86-5.27-5-7.42-2.14-2.14-4.64-3.82-7.42-5C29.53.62,26.48,0,23.33,0h0c-3.15,0-6.2.62-9.08,1.83-2.78,1.18-5.27,2.86-7.42,5-2.14,2.14-3.82,4.64-5,7.42C.62,17.13,0,20.18,0,23.33c0,3.15.62,6.2,1.83,9.08,1.18,2.78,2.86,5.27,5,7.42,2.14,2.14,4.64,3.82,7.42,5,2.88,1.22,5.93,1.83,9.08,1.83,3.15,0,6.2-.62,9.08-1.83,2.78-1.18,5.27-2.86,7.42-5,2.14-2.14,3.82-4.64,5-7.42,1.22-2.88,1.83-5.93,1.83-9.08s-.62-6.2-1.83-9.08ZM38.91,38.91c-4.16,4.16-9.7,6.45-15.58,6.45s-11.42-2.29-15.58-6.45c-4.16-4.16-6.45-9.7-6.45-15.58,0-5.89,2.29-11.42,6.45-15.58C11.91,3.58,17.44,1.29,23.33,1.29s11.42,2.29,15.58,6.45c4.16,4.16,6.45,9.7,6.45,15.58s-2.29,11.42-6.45,15.58Z"/>
      </g>
    </g>
  </g>
</svg>