<?xml version="1.0" encoding="UTF-8"?>
<svg id="Layer_2" data-name="Layer 2" xmlns="http://www.w3.org/2000/svg" viewBox="0 0 46.66 46.66">
  <defs>
    <style>
      .cls-1 {
        fill: #fff;
      }
    </style>
  </defs>
  <g id="Home_Page" data-name="Home Page">
    <g id="UI_Components" data-name="UI Components">
      <g>
        <path class="cls-1" d="M17.72,13.59c.63,2.03,1.05,3.37-.24,5.32-.88,1.33-3.21,1.67-4.44,1.02-.57-.3-1.01-.89-1.18-1.56-.14-.55-.07-1.07.19-1.46.41-.63.94-.97,1.53-.98.56-.02,1.12.26,1.46.72.25.33.26.95.04,1.36-.18.32-.4.34-.55.33-.36-.03-.67.24-.7.59-.03.36.24.67.59.7.75.06,1.41-.3,1.79-.99.47-.85.42-2.01-.13-2.75-.59-.8-1.56-1.27-2.54-1.24-1.02.03-1.93.58-2.57,1.56-.46.7-.59,1.59-.36,2.49.26,1.02.94,1.91,1.82,2.38.59.32,1.32.48,2.08.48.39,0,.79-.04,1.19-.13,1.23-.26,2.27-.92,2.85-1.8,1.63-2.46,1.06-4.29.4-6.41l-.03-.1c-.49-1.57-.06-2.58.12-3.01.69-1.64,2.29-2.7,4.07-2.7,2.44,0,4.42,1.98,4.42,4.42,0,.6-.12,1.17-.35,1.72-.14.33.02.71.34.85.08.03.17.05.25.05.25,0,.49-.15.6-.4.3-.7.45-1.45.45-2.22,0-3.15-2.56-5.71-5.71-5.71-2.3,0-4.36,1.37-5.26,3.49-.34.8-.73,2.08-.16,3.9l.03.1Z"/>
        <path class="cls-1" d="M11.98,23.29l.11.02c2.07.47,3.44.78,4.48,2.87.71,1.42-.16,3.62-1.34,4.35-.55.34-1.27.43-1.94.24-.54-.15-.96-.47-1.17-.89-.34-.67-.37-1.3-.09-1.82.27-.49.79-.84,1.36-.9.41-.05.96.25,1.19.64.19.31.09.52,0,.64-.2.29-.13.7.16.9.29.2.7.13.9-.16.43-.62.44-1.37.04-2.04-.5-.84-1.53-1.37-2.45-1.26-.98.11-1.88.72-2.35,1.57-.48.89-.46,1.96.07,3.01.38.75,1.08,1.3,1.98,1.56.34.1.69.14,1.04.14.69,0,1.37-.18,1.93-.53.86-.54,1.57-1.5,1.94-2.66.39-1.2.34-2.43-.13-3.37-1.32-2.64-3.19-3.06-5.35-3.55l-.11-.02c-1.61-.36-2.26-1.24-2.55-1.61-1.07-1.42-1.19-3.33-.3-4.87,1.22-2.11,3.93-2.84,6.04-1.62.52.3.96.69,1.31,1.16.13.17.32.26.52.26.14,0,.27-.04.39-.13.28-.22.34-.62.13-.91-.46-.61-1.03-1.11-1.7-1.5-2.73-1.57-6.23-.64-7.8,2.09-1.15,1.99-1,4.46.39,6.3.53.7,1.44,1.67,3.29,2.09Z"/>
        <path class="cls-1" d="M22.42,30.61c1.59.1,3.05,1.95,3.1,3.34.02.64-.26,1.32-.76,1.8-.4.39-.89.6-1.36.57-.75-.04-1.31-.33-1.62-.83-.29-.48-.33-1.1-.1-1.63.16-.38.69-.7,1.15-.71,0,0,.01,0,.02,0,.35,0,.48.18.54.32.15.32.54.46.86.31.32-.15.46-.54.31-.86-.32-.68-.96-1.07-1.75-1.05-.98.02-1.95.64-2.32,1.49-.39.91-.32,1.99.19,2.82.53.87,1.47,1.38,2.64,1.45.05,0,.11,0,.16,0,.78,0,1.55-.33,2.17-.94.75-.73,1.18-1.77,1.15-2.77-.03-1.01-.52-2.11-1.33-3.01-.85-.94-1.93-1.51-2.98-1.57-2.95-.18-4.25,1.23-5.75,2.86l-.07.08c-1.12,1.21-2.2,1.34-2.66,1.4-1.77.22-3.48-.64-4.37-2.18-1.22-2.11-.49-4.82,1.62-6.04,0,0,0,0,0,0,.52-.3,1.07-.49,1.66-.56.35-.04.61-.37.56-.72-.04-.35-.37-.61-.72-.56-.76.09-1.48.34-2.14.72,0,0,0,0,0,0-2.73,1.57-3.66,5.07-2.09,7.8,1.15,1.99,3.37,3.1,5.65,2.81.87-.11,2.16-.41,3.46-1.81l.07-.08c1.44-1.56,2.39-2.59,4.73-2.45Z"/>
        <path class="cls-1" d="M28.94,33.07c-.63-2.03-1.05-3.37.24-5.32.88-1.33,3.21-1.67,4.44-1.02.57.3,1.01.89,1.18,1.56.14.55.07,1.07-.19,1.46-.41.63-.94.97-1.53.98-.56.02-1.12-.26-1.46-.72-.25-.33-.26-.95-.04-1.36.18-.32.4-.34.55-.33.36.03.67-.24.7-.59.03-.36-.24-.67-.59-.7-.75-.06-1.41.3-1.79.99-.47.85-.42,2.01.13,2.75.59.8,1.56,1.27,2.54,1.24,1.02-.03,1.93-.58,2.57-1.56.46-.7.59-1.59.36-2.49-.26-1.02-.94-1.91-1.82-2.38-.89-.48-2.09-.61-3.27-.35-1.23.26-2.27.92-2.85,1.8-1.63,2.46-1.06,4.29-.4,6.41l.03.1c.49,1.57.06,2.58-.12,3.01-.69,1.64-2.29,2.7-4.07,2.7-2.44,0-4.42-1.98-4.42-4.42,0-.6.12-1.17.35-1.72.14-.33-.02-.71-.34-.85-.33-.14-.71.02-.85.34-.3.7-.45,1.45-.45,2.22,0,3.15,2.56,5.71,5.71,5.71,2.3,0,4.36-1.37,5.26-3.49.34-.8.73-2.08.16-3.9l-.03-.1Z"/>
        <path class="cls-1" d="M37.97,25.46c-.53-.7-1.44-1.67-3.29-2.09l-.11-.02c-2.07-.47-3.44-.78-4.48-2.87-.71-1.42.16-3.62,1.34-4.35.55-.34,1.27-.43,1.94-.24.54.15.96.47,1.17.89.34.67.37,1.3.09,1.82-.27.49-.79.84-1.36.9-.41.05-.96-.25-1.19-.64-.19-.31-.09-.52,0-.64.2-.29.13-.7-.16-.9-.29-.2-.7-.13-.9.16-.43.62-.44,1.37-.04,2.04.5.84,1.53,1.37,2.45,1.26.98-.11,1.88-.72,2.35-1.57.48-.89.46-1.96-.07-3.01-.38-.75-1.08-1.3-1.98-1.56-1.01-.28-2.12-.14-2.97.39-.86.54-1.57,1.5-1.94,2.66-.39,1.2-.34,2.43.13,3.37,1.32,2.64,3.19,3.06,5.35,3.55l.11.02c1.61.36,2.27,1.24,2.55,1.61,1.07,1.42,1.19,3.33.3,4.87-1.22,2.11-3.93,2.84-6.04,1.62-.52-.3-.96-.69-1.31-1.16-.22-.28-.62-.34-.91-.13-.28.22-.34.62-.13.91.46.61,1.03,1.11,1.7,1.5.9.52,1.88.76,2.85.76,1.98,0,3.9-1.02,4.96-2.85,1.15-1.99,1-4.46-.39-6.3Z"/>
        <path class="cls-1" d="M24.24,16.05c-1.59-.1-3.05-1.95-3.1-3.34-.02-.64.26-1.32.76-1.8.4-.39.89-.6,1.36-.57.75.04,1.31.33,1.62.83.29.48.33,1.1.1,1.63-.16.38-.69.7-1.15.71,0,0-.01,0-.02,0-.35,0-.48-.18-.54-.32-.15-.32-.54-.46-.86-.31-.32.15-.46.54-.31.86.32.68.96,1.07,1.75,1.05.98-.02,1.95-.64,2.32-1.49.39-.91.32-1.99-.19-2.82-.53-.87-1.47-1.38-2.64-1.45-.84-.05-1.67.28-2.34.93-.75.73-1.18,1.77-1.15,2.77.03,1.01.52,2.11,1.33,3.01.85.94,1.93,1.51,2.98,1.57,2.95.18,4.25-1.23,5.75-2.86l.07-.08c1.12-1.21,2.2-1.34,2.66-1.4,1.77-.22,3.48.64,4.37,2.18,1.22,2.11.49,4.82-1.62,6.04-.52.3-1.07.49-1.66.56-.35.04-.61.37-.56.72.04.33.32.57.64.57.03,0,.05,0,.08,0,.76-.09,1.48-.34,2.14-.72,2.73-1.57,3.67-5.07,2.09-7.8-1.15-1.99-3.37-3.1-5.65-2.81-.87.11-2.16.41-3.46,1.81l-.07.08c-1.44,1.56-2.39,2.59-4.73,2.45Z"/>
        <path class="cls-1" d="M44.83,14.25c-1.18-2.78-2.86-5.27-5-7.42-2.14-2.14-4.64-3.82-7.42-5C29.53.62,26.48,0,23.33,0h0c-3.15,0-6.2.62-9.08,1.83-2.78,1.18-5.27,2.86-7.42,5-2.14,2.14-3.82,4.64-5,7.42C.62,17.13,0,20.18,0,23.33s.62,6.2,1.83,9.08c1.18,2.78,2.86,5.27,5,7.42,2.14,2.14,4.64,3.82,7.42,5,2.88,1.22,5.93,1.83,9.08,1.83s6.2-.62,9.08-1.83c2.78-1.18,5.27-2.86,7.42-5,2.14-2.14,3.82-4.64,5-7.42,1.22-2.88,1.83-5.93,1.83-9.08,0-3.15-.62-6.2-1.83-9.08ZM38.91,38.91c-4.16,4.16-9.7,6.45-15.58,6.45-5.89,0-11.42-2.29-15.58-6.45-4.16-4.16-6.45-9.7-6.45-15.58,0-5.89,2.29-11.42,6.45-15.58C11.91,3.58,17.44,1.29,23.33,1.29s11.42,2.29,15.58,6.45c4.16,4.16,6.45,9.7,6.45,15.58,0,5.89-2.29,11.42-6.45,15.58Z"/>
      </g>
    </g>
  </g>
</svg>