<?xml version="1.0" encoding="UTF-8"?>
<svg id="Layer_2" data-name="Layer 2" xmlns="http://www.w3.org/2000/svg" viewBox="0 0 46.66 46.66">
  <defs>
    <style>
      .cls-1 {
        fill: #fff;
      }
    </style>
  </defs>
  <g id="Home_Page" data-name="Home Page">
    <g id="UI_Components" data-name="UI Components">
      <g>
        <path class="cls-1" d="M39.33,19.48c-.15-.15-.35-.21-.56-.18-.27.04-6.71,1.09-9.57,3.95-1.27,1.27-1.82,2.88-1.58,4.66.11.78.34,1.43.52,1.84l-4.16,4.16v-8.63c.51-.19,1.36-.56,2.21-1.21,1.78-1.36,2.72-3.26,2.72-5.5,0-5.12-4.84-11.84-5.05-12.13-.12-.17-.32-.27-.52-.27s-.4.1-.52.27c-.21.28-5.05,7.01-5.05,12.13,0,2.24.94,4.14,2.72,5.5.85.65,1.7,1.02,2.21,1.21v8.63s-4.16-4.16-4.16-4.16c.18-.41.42-1.06.52-1.84.24-1.78-.31-3.39-1.58-4.66-2.86-2.86-9.3-3.91-9.57-3.95-.2-.03-.41.04-.56.18-.15.15-.21.35-.18.56.04.27,1.09,6.71,3.95,9.57h0c1.08,1.08,2.4,1.63,3.86,1.63.26,0,.53-.02.8-.05.78-.11,1.43-.34,1.84-.52l5.08,5.08v4.08c0,.36.29.65.65.65s.65-.29.65-.65v-4.08s5.08-5.08,5.08-5.08c.41.18,1.06.42,1.84.52.27.04.54.05.8.05,1.46,0,2.78-.56,3.86-1.63h0c2.86-2.86,3.91-9.3,3.95-9.57.03-.2-.03-.41-.18-.56ZM19.05,18.58c0-3.75,3.03-8.72,4.28-10.6,1.24,1.88,4.28,6.85,4.28,10.6,0,1.83-.73,3.33-2.17,4.44-.52.4-1.04.68-1.46.87v-3.55s2.35-2.35,2.35-2.35c.25-.25.25-.66,0-.91-.25-.25-.66-.25-.91,0l-1.44,1.44v-1.86s1.37-1.37,1.37-1.37c.25-.25.25-.66,0-.91-.25-.25-.66-.25-.91,0l-.45.45v-1.79c0-.36-.29-.65-.65-.65s-.65.29-.65.65v1.79s-.45-.45-.45-.45c-.25-.25-.66-.25-.91,0-.25.25-.25.66,0,.91l1.37,1.37v1.86s-1.44-1.44-1.44-1.44c-.25-.25-.66-.25-.91,0-.25.25-.25.66,0,.91l2.35,2.35v3.55c-.41-.19-.94-.47-1.46-.87-1.44-1.12-2.17-2.61-2.17-4.44ZM12.02,28.7c-1.97-1.97-3.03-6.11-3.42-7.95,1.84.39,5.98,1.45,7.95,3.42,1.63,1.63,1.33,3.54.98,4.59l-1.98-1.98v-2.36c0-.36-.29-.65-.65-.65s-.65.29-.65.65v1.07s-2.54-2.54-2.54-2.54c-.25-.25-.66-.25-.91,0s-.25.66,0,.91l2.54,2.54h-1.07c-.36,0-.65.29-.65.65,0,.36.29.65.65.65h2.36s1.98,1.98,1.98,1.98c-1.05.36-2.96.66-4.59-.98ZM34.64,28.7c-1.64,1.64-3.56,1.33-4.61.97l1.91-1.98h2.23c.36,0,.65-.29.65-.65,0-.36-.29-.65-.65-.65h-.98s2.46-2.54,2.46-2.54c.25-.26.24-.67-.02-.91-.26-.25-.67-.24-.91.02l-2.53,2.62v-1.15c0-.36-.29-.65-.65-.65s-.65.29-.65.65v2.49s-1.77,1.83-1.77,1.83c-.36-1.06-.64-2.95.98-4.58,1.97-1.97,6.11-3.03,7.95-3.42-.39,1.84-1.45,5.98-3.42,7.95Z"/>
        <path class="cls-1" d="M44.83,14.25c-1.18-2.78-2.86-5.27-5-7.42-2.14-2.14-4.64-3.82-7.42-5C29.53.62,26.48,0,23.33,0h0c-3.15,0-6.2.62-9.08,1.83-2.78,1.18-5.27,2.86-7.42,5s-3.82,4.64-5,7.42C.62,17.13,0,20.18,0,23.33c0,3.15.62,6.2,1.83,9.08,1.18,2.78,2.86,5.27,5,7.42,2.14,2.14,4.64,3.82,7.42,5,2.88,1.22,5.93,1.83,9.08,1.83s6.2-.62,9.08-1.83c2.78-1.18,5.27-2.86,7.42-5,2.14-2.14,3.82-4.64,5-7.42,1.22-2.88,1.83-5.93,1.83-9.08,0-3.15-.62-6.2-1.83-9.08ZM38.91,38.91c-4.16,4.16-9.7,6.45-15.58,6.45s-11.42-2.29-15.58-6.45c-4.16-4.16-6.45-9.7-6.45-15.58,0-5.89,2.29-11.42,6.45-15.58C11.91,3.58,17.44,1.29,23.33,1.29c5.89,0,11.42,2.29,15.58,6.45,4.16,4.16,6.45,9.7,6.45,15.58,0,5.89-2.29,11.42-6.45,15.58Z"/>
      </g>
    </g>
  </g>
</svg>