<?xml version="1.0" encoding="UTF-8"?>
<svg id="Layer_2" data-name="Layer 2" xmlns="http://www.w3.org/2000/svg" viewBox="0 0 35.47 35.47">
  <g id="Shop_All" data-name="Shop All">
    <g id="UI_Components" data-name="UI Components">
      <g>
        <path d="M26.92,10.79c-.21-.55-.47-.94-.88-1.35-.41-.41-.8-.67-1.35-.88-.42-.16-1.04-.35-2.19-.41-1.24-.06-1.61-.07-4.76-.07-.39,0-.74,0-1.06,0h0c-2.2,0-2.62.01-3.7.06-1.15.05-1.77.24-2.19.41-.55.21-.94.47-1.35.88-.41.41-.67.8-.88,1.35-.16.42-.35,1.04-.41,2.19-.06,1.24-.07,1.61-.07,4.76s.01,3.52.07,4.76c.05,1.15.24,1.77.41,2.19.21.55.47.94.88,1.35.41.41.8.67,1.35.88.42.16,1.04.35,2.19.41,1.24.06,1.61.07,4.76.07s3.52-.01,4.76-.07c1.15-.05,1.77-.24,2.19-.41.55-.21.94-.47,1.35-.88.41-.41.67-.8.88-1.35.16-.41.35-1.04.41-2.19.06-1.24.07-1.61.07-4.76s-.01-3.52-.07-4.76c-.05-1.15-.24-1.77-.41-2.19ZM17.74,23.78c-3.34,0-6.05-2.71-6.05-6.05s2.71-6.05,6.05-6.05h0,0,0c3.34,0,6.05,2.71,6.05,6.05s-2.71,6.05-6.05,6.05ZM24.03,12.86c-.78,0-1.41-.63-1.41-1.41s.63-1.41,1.41-1.41h0c.78,0,1.41.63,1.41,1.41s-.63,1.41-1.41,1.41Z"/>
        <circle cx="17.74" cy="17.74" r="3.93" transform="translate(-1.93 33.31) rotate(-83.38)"/>
        <path d="M17.74,0C7.94,0,0,7.94,0,17.74s7.94,17.74,17.74,17.74,17.74-7.94,17.74-17.74S27.53,0,17.74,0ZM29.44,22.59c-.06,1.25-.26,2.11-.55,2.86-.3.77-.7,1.43-1.36,2.09-.65.66-1.31,1.06-2.09,1.36-.75.29-1.61.49-2.86.55-1.26.06-1.66.07-4.86.07s-3.6-.01-4.86-.07c-1.25-.06-2.11-.26-2.86-.55-.77-.3-1.43-.7-2.09-1.36-.65-.65-1.06-1.31-1.36-2.09-.29-.75-.49-1.6-.55-2.86-.06-1.26-.07-1.66-.07-4.86s.01-3.6.07-4.86c.06-1.25.26-2.11.55-2.86.3-.77.7-1.43,1.36-2.09.65-.65,1.31-1.06,2.09-1.36.75-.29,1.6-.49,2.86-.55,1.26-.06,1.66-.07,4.86-.07h0c3.2,0,3.6.01,4.86.07,1.25.06,2.11.26,2.86.55.78.3,1.43.7,2.09,1.36.66.65,1.06,1.31,1.36,2.09.29.75.49,1.6.55,2.86.06,1.26.07,1.66.07,4.86s-.01,3.6-.07,4.86Z"/>
      </g>
    </g>
  </g>
</svg>