<?xml version="1.0" encoding="UTF-8"?>
<svg id="Layer_2" data-name="Layer 2" xmlns="http://www.w3.org/2000/svg" viewBox="0 0 35.47 35.47">
  <g id="Shop_All" data-name="Shop All">
    <g id="UI_Components" data-name="UI Components">
      <path d="M17.74,0C7.94,0,0,7.94,0,17.74s7.94,17.74,17.74,17.74,17.74-7.94,17.74-17.74S27.53,0,17.74,0Zm7.89,15.89c-.05,0-.1,0-.15,0-1.77,0-3.33-.85-4.32-2.16v7.42c0,3.52-2.86,6.38-6.38,6.38s-6.38-2.86-6.38-6.38,2.86-6.38,6.38-6.38c.19,0,.37.01.56.03v3.15c-.18-.03-.37-.05-.56-.05-1.76,0-3.19,1.43-3.19,3.19s1.43,3.19,3.19,3.19,3.19-1.43,3.19-3.19V8h3.08c.29,2.42,2.22,4.33,4.65,4.58v3.31Z"/>
    </g>
  </g>
</svg>
